<svg width="1041.2599853515626px" height="108.839990234375px" xmlns="http://www.w3.org/2000/svg" viewBox="-270.6299926757813 20.580004882812503 1041.2599853515626 108.839990234375" style="background: rgba(0, 0, 0, 0) none repeat scroll 0% 0%;" preserveAspectRatio="xMidYMid"><defs><linearGradient id="editing-gradow-gradient" x1="0" x2="1" y1="0.5" y2="0.5" gradientUnits="objectBoundingBox"><stop offset="0" stop-color="#ffcbb0"></stop><stop offset="1" stop-color="#e95678"></stop></linearGradient><filter id="editing-gradow-filter" x="-100%" y="-100%" width="300%" height="300%"><feFlood flood-color="#343850" result="flood"></feFlood><feComposite operator="in" in2="SourceAlpha" in="flood" result="shadow"></feComposite><feOffset dx="-4" dy="-4" in="SourceGraphic" result="offset-1"></feOffset><feOffset dx="4" dy="4" in="shadow" result="offset-2"></feOffset><feMerge><feMergeNode in="offset-2"></feMergeNode><feMergeNode in="offset-1"></feMergeNode></feMerge></filter></defs><g filter="url(#editing-gradow-filter)"><g transform="translate(-125.39001989364624, 94.99499893188477)"><path d="M38.67-27.29L38.67-23.24L38.67-23.24Q38.67-21.07 38.13-19.36L38.13-19.36L38.13-19.36Q37.60-17.65 36.68-16.35L36.68-16.35L36.68-16.35Q35.77-15.04 34.57-14.11L34.57-14.11L34.57-14.11Q33.37-13.18 32.07-12.59L32.07-12.59L32.07-12.59Q30.76-11.99 29.43-11.72L29.43-11.72L29.43-11.72Q28.10-11.45 26.93-11.45L26.93-11.45L40.19 0L30.37 0L17.14-11.45L12.57-11.45L12.57-17.80L26.93-17.80L26.93-17.80Q28.13-17.90 29.11-18.30L29.11-18.30L29.11-18.30Q30.10-18.70 30.82-19.38L30.82-19.38L30.82-19.38Q31.54-20.07 31.93-21.03L31.93-21.03L31.93-21.03Q32.32-22.00 32.32-23.24L32.32-23.24L32.32-27.25L32.32-27.25Q32.32-27.78 32.19-28.06L32.19-28.06L32.19-28.06Q32.06-28.34 31.85-28.48L31.85-28.48L31.85-28.48Q31.64-28.61 31.41-28.64L31.41-28.64L31.41-28.64Q31.18-28.66 30.98-28.66L30.98-28.66L10.03-28.66L10.03 0L3.69 0L3.69-31.81L3.69-31.81Q3.69-32.47 3.93-33.06L3.93-33.06L3.93-33.06Q4.17-33.64 4.60-34.08L4.60-34.08L4.60-34.08Q5.03-34.52 5.62-34.77L5.62-34.77L5.62-34.77Q6.20-35.01 6.88-35.01L6.88-35.01L30.98-35.01L30.98-35.01Q33.11-35.01 34.57-34.24L34.57-34.24L34.57-34.24Q36.04-33.47 36.95-32.31L36.95-32.31L36.95-32.31Q37.87-31.15 38.27-29.81L38.27-29.81L38.27-29.81Q38.67-28.47 38.67-27.29L38.67-27.29ZM81.79-20.85L81.79-14.16L81.79-14.16Q81.79-10.96 80.69-8.28L80.69-8.28L80.69-8.28Q79.59-5.59 77.64-3.64L77.64-3.64L77.64-3.64Q75.68-1.68 73.01-0.60L73.01-0.60L73.01-0.60Q70.34 0.49 67.19 0.49L67.19 0.49L58.59 0.49L58.59 0.49Q55.44 0.49 52.76-0.60L52.76-0.60L52.76-0.60Q50.07-1.68 48.12-3.64L48.12-3.64L48.12-3.64Q46.17-5.59 45.06-8.28L45.06-8.28L45.06-8.28Q43.95-10.96 43.95-14.16L43.95-14.16L43.95-20.85L43.95-20.85Q43.95-24.02 45.06-26.72L45.06-26.72L45.06-26.72Q46.17-29.42 48.12-31.36L48.12-31.36L48.12-31.36Q50.07-33.30 52.76-34.40L52.76-34.40L52.76-34.40Q55.44-35.50 58.59-35.50L58.59-35.50L67.19-35.50L67.19-35.50Q70.34-35.50 73.01-34.40L73.01-34.40L73.01-34.40Q75.68-33.30 77.64-31.36L77.64-31.36L77.64-31.36Q79.59-29.42 80.69-26.72L80.69-26.72L80.69-26.72Q81.79-24.02 81.79-20.85L81.79-20.85ZM75.44-14.16L75.44-20.85L75.44-20.85Q75.44-22.73 74.84-24.26L74.84-24.26L74.84-24.26Q74.24-25.78 73.16-26.87L73.16-26.87L73.16-26.87Q72.07-27.95 70.54-28.55L70.54-28.55L70.54-28.55Q69.02-29.15 67.19-29.15L67.19-29.15L58.59-29.15L58.59-29.15Q56.74-29.15 55.21-28.55L55.21-28.55L55.21-28.55Q53.69-27.95 52.59-26.87L52.59-26.87L52.59-26.87Q51.49-25.78 50.89-24.26L50.89-24.26L50.89-24.26Q50.29-22.73 50.29-20.85L50.29-20.85L50.29-14.16L50.29-14.16Q50.29-12.28 50.89-10.75L50.89-10.75L50.89-10.75Q51.49-9.23 52.59-8.14L52.59-8.14L52.59-8.14Q53.69-7.06 55.21-6.46L55.21-6.46L55.21-6.46Q56.74-5.86 58.59-5.86L58.59-5.86L67.14-5.86L67.14-5.86Q68.99-5.86 70.52-6.46L70.52-6.46L70.52-6.46Q72.05-7.06 73.14-8.14L73.14-8.14L73.14-8.14Q74.24-9.23 74.84-10.75L74.84-10.75L74.84-10.75Q75.44-12.28 75.44-14.16L75.44-14.16ZM119.41-6.35L119.41 0L96.51 0L96.51 0Q95.63 0 94.62-0.21L94.62-0.21L94.62-0.21Q93.60-0.42 92.61-0.85L92.61-0.85L92.61-0.85Q91.63-1.29 90.72-1.99L90.72-1.99L90.72-1.99Q89.82-2.69 89.12-3.67L89.12-3.67L89.12-3.67Q88.43-4.66 88.01-5.97L88.01-5.97L88.01-5.97Q87.60-7.28 87.60-8.91L87.60-8.91L87.60-26.10L87.60-26.10Q87.60-26.98 87.81-27.99L87.81-27.99L87.81-27.99Q88.01-29.00 88.45-29.99L88.45-29.99L88.45-29.99Q88.89-30.98 89.60-31.88L89.60-31.88L89.60-31.88Q90.31-32.79 91.30-33.48L91.30-33.48L91.30-33.48Q92.29-34.18 93.58-34.59L93.58-34.59L93.58-34.59Q94.87-35.01 96.51-35.01L96.51-35.01L119.41-35.01L119.41-28.66L96.51-28.66L96.51-28.66Q95.26-28.66 94.60-28.00L94.60-28.00L94.60-28.00Q93.95-27.34 93.95-26.05L93.95-26.05L93.95-8.91L93.95-8.91Q93.95-7.69 94.62-7.02L94.62-7.02L94.62-7.02Q95.29-6.35 96.51-6.35L96.51-6.35L119.41-6.35ZM144.12-17.50L162.11 0L153.10 0L138.82-14.31L134.35-14.31L134.35-20.70L138.82-20.70L153.10-35.01L162.11-35.01L144.12-17.50ZM131.81-35.01L131.81 0L125.46 0L125.46-35.01L131.81-35.01ZM171.78-7.79L167.99 4.49L163.53 4.49L165.80-7.79L171.78-7.79ZM228.49-23.24L228.49-20.36L228.49-20.36Q228.49-18.19 227.95-16.48L227.95-16.48L227.95-16.48Q227.42-14.77 226.50-13.46L226.50-13.46L226.50-13.46Q225.59-12.16 224.39-11.23L224.39-11.23L224.39-11.23Q223.19-10.30 221.89-9.72L221.89-9.72L221.89-9.72Q220.58-9.13 219.25-8.86L219.25-8.86L219.25-8.86Q217.92-8.59 216.75-8.59L216.75-8.59L202.39-8.59L202.39-14.94L216.75-14.94L216.75-14.94Q217.97-15.04 218.96-15.44L218.96-15.44L218.96-15.44Q219.95-15.84 220.65-16.53L220.65-16.53L220.65-16.53Q221.36-17.21 221.75-18.18L221.75-18.18L221.75-18.18Q222.14-19.14 222.14-20.36L222.14-20.36L222.14-23.24L222.14-23.24Q222.02-24.44 221.63-25.44L221.63-25.44L221.63-25.44Q221.24-26.44 220.57-27.15L220.57-27.15L220.57-27.15Q219.90-27.86 218.95-28.26L218.95-28.26L218.95-28.26Q217.99-28.66 216.75-28.66L216.75-28.66L202.44-28.66L202.44-28.66Q201.17-28.66 200.51-28.00L200.51-28.00L200.51-28.00Q199.85-27.34 199.85-26.10L199.85-26.10L199.85 0L193.51 0L193.51-26.10L193.51-26.10Q193.51-28.54 194.40-30.25L194.40-30.25L194.40-30.25Q195.29-31.96 196.62-33.01L196.62-33.01L196.62-33.01Q197.95-34.06 199.51-34.53L199.51-34.53L199.51-34.53Q201.07-35.01 202.39-35.01L202.39-35.01L216.75-35.01L216.75-35.01Q218.90-35.01 220.61-34.46L220.61-34.46L220.61-34.46Q222.31-33.91 223.62-33.00L223.62-33.00L223.62-33.00Q224.93-32.08 225.84-30.88L225.84-30.88L225.84-30.88Q226.76-29.69 227.36-28.38L227.36-28.38L227.36-28.38Q227.95-27.08 228.22-25.74L228.22-25.74L228.22-25.74Q228.49-24.41 228.49-23.24L228.49-23.24ZM268.26-31.81L268.26 0L261.91 0L261.91-8.59L239.60-8.59L239.60 0L233.25 0L233.25-17.50L233.25-17.50Q233.25-21.34 234.57-24.56L234.57-24.56L234.57-24.56Q235.89-27.78 238.23-30.10L238.23-30.10L238.23-30.10Q240.58-32.42 243.77-33.72L243.77-33.72L243.77-33.72Q246.97-35.01 250.76-35.01L250.76-35.01L265.06-35.01L265.06-35.01Q265.72-35.01 266.31-34.77L266.31-34.77L266.31-34.77Q266.89-34.52 267.33-34.08L267.33-34.08L267.33-34.08Q267.77-33.64 268.02-33.06L268.02-33.06L268.02-33.06Q268.26-32.47 268.26-31.81L268.26-31.81ZM239.60-17.50L239.60-14.94L261.91-14.94L261.91-28.66L250.76-28.66L250.76-28.66Q250.46-28.66 249.52-28.58L249.52-28.58L249.52-28.58Q248.58-28.49 247.35-28.15L247.35-28.15L247.35-28.15Q246.12-27.81 244.75-27.10L244.75-27.10L244.75-27.10Q243.38-26.39 242.24-25.15L242.24-25.15L242.24-25.15Q241.09-23.90 240.34-22.03L240.34-22.03L240.34-22.03Q239.60-20.17 239.60-17.50L239.60-17.50ZM310.52-23.24L310.52-20.36L310.52-20.36Q310.52-18.19 309.99-16.48L309.99-16.48L309.99-16.48Q309.45-14.77 308.53-13.46L308.53-13.46L308.53-13.46Q307.62-12.16 306.42-11.23L306.42-11.23L306.42-11.23Q305.22-10.30 303.92-9.72L303.92-9.72L303.92-9.72Q302.61-9.13 301.28-8.86L301.28-8.86L301.28-8.86Q299.95-8.59 298.78-8.59L298.78-8.59L284.42-8.59L284.42-14.94L298.78-14.94L298.78-14.94Q300-15.04 300.99-15.44L300.99-15.44L300.99-15.44Q301.98-15.84 302.69-16.53L302.69-16.53L302.69-16.53Q303.39-17.21 303.78-18.18L303.78-18.18L303.78-18.18Q304.17-19.14 304.17-20.36L304.17-20.36L304.17-23.24L304.17-23.24Q304.05-24.44 303.66-25.44L303.66-25.44L303.66-25.44Q303.27-26.44 302.60-27.15L302.60-27.15L302.60-27.15Q301.93-27.86 300.98-28.26L300.98-28.26L300.98-28.26Q300.02-28.66 298.78-28.66L298.78-28.66L284.47-28.66L284.47-28.66Q283.20-28.66 282.54-28.00L282.54-28.00L282.54-28.00Q281.88-27.34 281.88-26.10L281.88-26.10L281.88 0L275.54 0L275.54-26.10L275.54-26.10Q275.54-28.54 276.43-30.25L276.43-30.25L276.43-30.25Q277.32-31.96 278.65-33.01L278.65-33.01L278.65-33.01Q279.98-34.06 281.54-34.53L281.54-34.53L281.54-34.53Q283.11-35.01 284.42-35.01L284.42-35.01L298.78-35.01L298.78-35.01Q300.93-35.01 302.64-34.46L302.64-34.46L302.64-34.46Q304.35-33.91 305.65-33.00L305.65-33.00L305.65-33.00Q306.96-32.08 307.87-30.88L307.87-30.88L307.87-30.88Q308.79-29.69 309.39-28.38L309.39-28.38L309.39-28.38Q309.99-27.08 310.25-25.74L310.25-25.74L310.25-25.74Q310.52-24.41 310.52-23.24L310.52-23.24ZM344.73-20.70L344.73-14.31L324.68-14.31L324.68-20.70L344.73-20.70ZM347.58-6.35L347.58 0L324.68 0L324.68 0Q323.36 0 321.80-0.46L321.80-0.46L321.80-0.46Q320.24-0.93 318.91-1.99L318.91-1.99L318.91-1.99Q317.58-3.05 316.69-4.75L316.69-4.75L316.69-4.75Q315.80-6.45 315.80-8.91L315.80-8.91L315.80-31.81L315.80-31.81Q315.80-32.47 316.04-33.06L316.04-33.06L316.04-33.06Q316.28-33.64 316.71-34.08L316.71-34.08L316.71-34.08Q317.14-34.52 317.72-34.77L317.72-34.77L317.72-34.77Q318.31-35.01 318.99-35.01L318.99-35.01L347.58-35.01L347.58-28.66L322.14-28.66L322.14-8.91L322.14-8.91Q322.14-7.67 322.80-7.01L322.80-7.01L322.80-7.01Q323.46-6.35 324.73-6.35L324.73-6.35L347.58-6.35ZM388.70-27.29L388.70-23.24L388.70-23.24Q388.70-21.07 388.16-19.36L388.16-19.36L388.16-19.36Q387.62-17.65 386.71-16.35L386.71-16.35L386.71-16.35Q385.79-15.04 384.59-14.11L384.59-14.11L384.59-14.11Q383.40-13.18 382.09-12.59L382.09-12.59L382.09-12.59Q380.79-11.99 379.46-11.72L379.46-11.72L379.46-11.72Q378.13-11.45 376.95-11.45L376.95-11.45L390.21 0L380.40 0L367.16-11.45L362.60-11.45L362.60-17.80L376.95-17.80L376.95-17.80Q378.15-17.90 379.14-18.30L379.14-18.30L379.14-18.30Q380.13-18.70 380.85-19.38L380.85-19.38L380.85-19.38Q381.57-20.07 381.96-21.03L381.96-21.03L381.96-21.03Q382.35-22.00 382.35-23.24L382.35-23.24L382.35-27.25L382.35-27.25Q382.35-27.78 382.21-28.06L382.21-28.06L382.21-28.06Q382.08-28.34 381.87-28.48L381.87-28.48L381.87-28.48Q381.67-28.61 381.43-28.64L381.43-28.64L381.43-28.64Q381.20-28.66 381.01-28.66L381.01-28.66L360.06-28.66L360.06 0L353.71 0L353.71-31.81L353.71-31.81Q353.71-32.47 353.96-33.06L353.96-33.06L353.96-33.06Q354.20-33.64 354.63-34.08L354.63-34.08L354.63-34.08Q355.05-34.52 355.64-34.77L355.64-34.77L355.64-34.77Q356.23-35.01 356.91-35.01L356.91-35.01L381.01-35.01L381.01-35.01Q383.13-35.01 384.59-34.24L384.59-34.24L384.59-34.24Q386.06-33.47 386.98-32.31L386.98-32.31L386.98-32.31Q387.89-31.15 388.29-29.81L388.29-29.81L388.29-29.81Q388.70-28.47 388.70-27.29L388.70-27.29ZM439.33-14.65L439.33-8.91L436.47-8.91L436.43-8.84L436.43-8.84Q436.43-7.28 436.02-6.03L436.02-6.03L436.02-6.03Q435.62-4.79 434.96-3.85L434.96-3.85L434.96-3.85Q434.30-2.91 433.42-2.22L433.42-2.22L433.42-2.22Q432.54-1.54 431.60-1.11L431.60-1.11L431.60-1.11Q430.66-0.68 429.70-0.49L429.70-0.49L429.70-0.49Q428.74-0.29 427.88-0.29L427.88-0.29L419.26-0.29L419.26-0.29Q416.99-0.29 415.39-1.15L415.39-1.15L415.39-1.15Q413.79-2.00 412.76-3.27L412.76-3.27L412.76-3.27Q411.72-4.54 411.22-6.03L411.22-6.03L411.22-6.03Q410.72-7.52 410.67-8.79L410.67-8.79L410.67-11.74L410.67-11.74Q410.67-13.67 411.22-15.08L411.22-15.08L411.22-15.08Q411.77-16.48 412.67-17.50L412.67-17.50L412.67-17.50Q411.62-18.82 411.15-20.36L411.15-20.36L411.15-20.36Q410.67-21.90 410.67-23.24L410.67-23.24L410.67-23.24Q410.67-25.61 411.52-27.25L411.52-27.25L411.52-27.25Q412.38-28.88 413.67-29.90L413.67-29.90L413.67-29.90Q414.97-30.91 416.47-31.36L416.47-31.36L416.47-31.36Q417.97-31.81 419.26-31.81L419.26-31.81L433.57-31.81L433.57-26.10L419.26-26.10L419.26-26.10Q418.60-26.10 418.08-25.89L418.08-25.89L418.08-25.89Q417.55-25.68 417.18-25.29L417.18-25.29L417.18-25.29Q416.80-24.90 416.60-24.38L416.60-24.38L416.60-24.38Q416.41-23.85 416.43-23.24L416.43-23.24L416.43-23.24Q416.43-21.85 417.21-21.11L417.21-21.11L417.21-21.11Q417.99-20.36 419.26-20.36L419.26-20.36L427.88-20.36L427.88-14.65L419.26-14.65L419.26-14.65Q417.92-14.65 417.18-13.82L417.18-13.82L417.18-13.82Q416.43-12.99 416.43-11.74L416.43-11.74L416.43-9.01L416.43-9.01Q416.43-7.69 417.22-6.87L417.22-6.87L417.22-6.87Q418.02-6.05 419.26-6.05L419.26-6.05L427.83-6.05L427.83-6.05Q429.17-6.05 429.94-6.86L429.94-6.86L429.94-6.86Q430.71-7.67 430.71-8.91L430.71-8.91L430.71-8.91Q430.71-9.96 431.08-10.99L431.08-10.99L431.08-10.99Q431.45-12.01 432.18-12.83L432.18-12.83L432.18-12.83Q432.91-13.65 433.97-14.15L433.97-14.15L433.97-14.15Q435.03-14.65 436.43-14.65L436.43-14.65L439.33-14.65ZM494.80-10.30L494.80-10.30L494.80-10.30Q494.80-8.42 494.32-6.92L494.32-6.92L494.32-6.92Q493.85-5.42 493.07-4.27L493.07-4.27L493.07-4.27Q492.29-3.13 491.24-2.32L491.24-2.32L491.24-2.32Q490.19-1.51 489.06-1.00L489.06-1.00L489.06-1.00Q487.94-0.49 486.78-0.24L486.78-0.24L486.78-0.24Q485.62 0 484.59 0L484.59 0L460.11 0L460.11-6.35L484.59-6.35L484.59-6.35Q486.43-6.35 487.44-7.42L487.44-7.42L487.44-7.42Q488.45-8.50 488.45-10.30L488.45-10.30L488.45-10.30Q488.45-11.18 488.18-11.91L488.18-11.91L488.18-11.91Q487.92-12.65 487.41-13.18L487.41-13.18L487.41-13.18Q486.91-13.72 486.19-14.01L486.19-14.01L486.19-14.01Q485.47-14.31 484.59-14.31L484.59-14.31L470.00-14.31L470.00-14.31Q468.46-14.31 466.67-14.86L466.67-14.86L466.67-14.86Q464.89-15.41 463.37-16.63L463.37-16.63L463.37-16.63Q461.84-17.85 460.83-19.82L460.83-19.82L460.83-19.82Q459.81-21.80 459.81-24.66L459.81-24.66L459.81-24.66Q459.81-27.51 460.83-29.48L460.83-29.48L460.83-29.48Q461.84-31.45 463.37-32.68L463.37-32.68L463.37-32.68Q464.89-33.91 466.67-34.46L466.67-34.46L466.67-34.46Q468.46-35.01 470.00-35.01L470.00-35.01L491.60-35.01L491.60-28.66L470.00-28.66L470.00-28.66Q468.19-28.66 467.18-27.56L467.18-27.56L467.18-27.56Q466.16-26.46 466.16-24.66L466.16-24.66L466.16-24.66Q466.16-22.83 467.18-21.77L467.18-21.77L467.18-21.77Q468.19-20.70 470.00-20.70L470.00-20.70L484.59-20.70L484.64-20.70L484.64-20.70Q485.67-20.68 486.82-20.42L486.82-20.42L486.82-20.42Q487.96-20.17 489.10-19.63L489.10-19.63L489.10-19.63Q490.23-19.09 491.26-18.27L491.26-18.27L491.26-18.27Q492.29-17.46 493.08-16.31L493.08-16.31L493.08-16.31Q493.87-15.16 494.34-13.67L494.34-13.67L494.34-13.67Q494.80-12.18 494.80-10.30ZM531.42-6.35L531.42 0L508.52 0L508.52 0Q507.64 0 506.63-0.21L506.63-0.21L506.63-0.21Q505.62-0.42 504.63-0.85L504.63-0.85L504.63-0.85Q503.64-1.29 502.73-1.99L502.73-1.99L502.73-1.99Q501.83-2.69 501.14-3.67L501.14-3.67L501.14-3.67Q500.44-4.66 500.02-5.97L500.02-5.97L500.02-5.97Q499.61-7.28 499.61-8.91L499.61-8.91L499.61-26.10L499.61-26.10Q499.61-26.98 499.82-27.99L499.82-27.99L499.82-27.99Q500.02-29.00 500.46-29.99L500.46-29.99L500.46-29.99Q500.90-30.98 501.61-31.88L501.61-31.88L501.61-31.88Q502.32-32.79 503.31-33.48L503.31-33.48L503.31-33.48Q504.30-34.18 505.59-34.59L505.59-34.59L505.59-34.59Q506.88-35.01 508.52-35.01L508.52-35.01L531.42-35.01L531.42-28.66L508.52-28.66L508.52-28.66Q507.28-28.66 506.62-28.00L506.62-28.00L506.62-28.00Q505.96-27.34 505.96-26.05L505.96-26.05L505.96-8.91L505.96-8.91Q505.96-7.69 506.63-7.02L506.63-7.02L506.63-7.02Q507.30-6.35 508.52-6.35L508.52-6.35L531.42-6.35ZM543.82-35.01L543.82 0L537.48 0L537.48-35.01L543.82-35.01ZM584.89-10.30L584.89-10.30L584.89-10.30Q584.89-8.42 584.41-6.92L584.41-6.92L584.41-6.92Q583.94-5.42 583.15-4.27L583.15-4.27L583.15-4.27Q582.37-3.13 581.32-2.32L581.32-2.32L581.32-2.32Q580.27-1.51 579.15-1.00L579.15-1.00L579.15-1.00Q578.03-0.49 576.87-0.24L576.87-0.24L576.87-0.24Q575.71 0 574.68 0L574.68 0L550.20 0L550.20-6.35L574.68-6.35L574.68-6.35Q576.51-6.35 577.53-7.42L577.53-7.42L577.53-7.42Q578.54-8.50 578.54-10.30L578.54-10.30L578.54-10.30Q578.54-11.18 578.27-11.91L578.27-11.91L578.27-11.91Q578.00-12.65 577.50-13.18L577.50-13.18L577.50-13.18Q577.00-13.72 576.28-14.01L576.28-14.01L576.28-14.01Q575.56-14.31 574.68-14.31L574.68-14.31L560.08-14.31L560.08-14.31Q558.54-14.31 556.76-14.86L556.76-14.86L556.76-14.86Q554.98-15.41 553.45-16.63L553.45-16.63L553.45-16.63Q551.93-17.85 550.92-19.82L550.92-19.82L550.92-19.82Q549.90-21.80 549.90-24.66L549.90-24.66L549.90-24.66Q549.90-27.51 550.92-29.48L550.92-29.48L550.92-29.48Q551.93-31.45 553.45-32.68L553.45-32.68L553.45-32.68Q554.98-33.91 556.76-34.46L556.76-34.46L556.76-34.46Q558.54-35.01 560.08-35.01L560.08-35.01L581.69-35.01L581.69-28.66L560.08-28.66L560.08-28.66Q558.28-28.66 557.26-27.56L557.26-27.56L557.26-27.56Q556.25-26.46 556.25-24.66L556.25-24.66L556.25-24.66Q556.25-22.83 557.26-21.77L557.26-21.77L557.26-21.77Q558.28-20.70 560.08-20.70L560.08-20.70L574.68-20.70L574.73-20.70L574.73-20.70Q575.76-20.68 576.90-20.42L576.90-20.42L576.90-20.42Q578.05-20.17 579.19-19.63L579.19-19.63L579.19-19.63Q580.32-19.09 581.35-18.27L581.35-18.27L581.35-18.27Q582.37-17.46 583.17-16.31L583.17-16.31L583.17-16.31Q583.96-15.16 584.42-13.67L584.42-13.67L584.42-13.67Q584.89-12.18 584.89-10.30ZM623.80-10.30L623.80-10.30L623.80-10.30Q623.80-8.42 623.33-6.92L623.33-6.92L623.33-6.92Q622.85-5.42 622.07-4.27L622.07-4.27L622.07-4.27Q621.29-3.13 620.24-2.32L620.24-2.32L620.24-2.32Q619.19-1.51 618.07-1.00L618.07-1.00L618.07-1.00Q616.94-0.49 615.78-0.24L615.78-0.24L615.78-0.24Q614.62 0 613.60 0L613.60 0L589.11 0L589.11-6.35L613.60-6.35L613.60-6.35Q615.43-6.35 616.44-7.42L616.44-7.42L616.44-7.42Q617.46-8.50 617.46-10.30L617.46-10.30L617.46-10.30Q617.46-11.18 617.19-11.91L617.19-11.91L617.19-11.91Q616.92-12.65 616.42-13.18L616.42-13.18L616.42-13.18Q615.92-13.72 615.20-14.01L615.20-14.01L615.20-14.01Q614.48-14.31 613.60-14.31L613.60-14.31L599.00-14.31L599.00-14.31Q597.46-14.31 595.68-14.86L595.68-14.86L595.68-14.86Q593.90-15.41 592.37-16.63L592.37-16.63L592.37-16.63Q590.84-17.85 589.83-19.82L589.83-19.82L589.83-19.82Q588.82-21.80 588.82-24.66L588.82-24.66L588.82-24.66Q588.82-27.51 589.83-29.48L589.83-29.48L589.83-29.48Q590.84-31.45 592.37-32.68L592.37-32.68L592.37-32.68Q593.90-33.91 595.68-34.46L595.68-34.46L595.68-34.46Q597.46-35.01 599.00-35.01L599.00-35.01L620.61-35.01L620.61-28.66L599.00-28.66L599.00-28.66Q597.19-28.66 596.18-27.56L596.18-27.56L596.18-27.56Q595.17-26.46 595.17-24.66L595.17-24.66L595.17-24.66Q595.17-22.83 596.18-21.77L596.18-21.77L596.18-21.77Q597.19-20.70 599.00-20.70L599.00-20.70L613.60-20.70L613.65-20.70L613.65-20.70Q614.67-20.68 615.82-20.42L615.82-20.42L615.82-20.42Q616.97-20.17 618.10-19.63L618.10-19.63L618.10-19.63Q619.24-19.09 620.26-18.27L620.26-18.27L620.26-18.27Q621.29-17.46 622.08-16.31L622.08-16.31L622.08-16.31Q622.88-15.16 623.34-13.67L623.34-13.67L623.34-13.67Q623.80-12.18 623.80-10.30ZM665.82-20.85L665.82-14.16L665.82-14.16Q665.82-10.96 664.72-8.28L664.72-8.28L664.72-8.28Q663.62-5.59 661.67-3.64L661.67-3.64L661.67-3.64Q659.72-1.68 657.04-0.60L657.04-0.60L657.04-0.60Q654.37 0.49 651.22 0.49L651.22 0.49L642.63 0.49L642.63 0.49Q639.48 0.49 636.79-0.60L636.79-0.60L636.79-0.60Q634.11-1.68 632.15-3.64L632.15-3.64L632.15-3.64Q630.20-5.59 629.09-8.28L629.09-8.28L629.09-8.28Q627.98-10.96 627.98-14.16L627.98-14.16L627.98-20.85L627.98-20.85Q627.98-24.02 629.09-26.72L629.09-26.72L629.09-26.72Q630.20-29.42 632.15-31.36L632.15-31.36L632.15-31.36Q634.11-33.30 636.79-34.40L636.79-34.40L636.79-34.40Q639.48-35.50 642.63-35.50L642.63-35.50L651.22-35.50L651.22-35.50Q654.37-35.50 657.04-34.40L657.04-34.40L657.04-34.40Q659.72-33.30 661.67-31.36L661.67-31.36L661.67-31.36Q663.62-29.42 664.72-26.72L664.72-26.72L664.72-26.72Q665.82-24.02 665.82-20.85L665.82-20.85ZM659.47-14.16L659.47-20.85L659.47-20.85Q659.47-22.73 658.87-24.26L658.87-24.26L658.87-24.26Q658.28-25.78 657.19-26.87L657.19-26.87L657.19-26.87Q656.10-27.95 654.58-28.55L654.58-28.55L654.58-28.55Q653.05-29.15 651.22-29.15L651.22-29.15L642.63-29.15L642.63-29.15Q640.77-29.15 639.25-28.55L639.25-28.55L639.25-28.55Q637.72-27.95 636.62-26.87L636.62-26.87L636.62-26.87Q635.52-25.78 634.92-24.26L634.92-24.26L634.92-24.26Q634.33-22.73 634.33-20.85L634.33-20.85L634.33-14.16L634.33-14.16Q634.33-12.28 634.92-10.75L634.92-10.75L634.92-10.75Q635.52-9.23 636.62-8.14L636.62-8.14L636.62-8.14Q637.72-7.06 639.25-6.46L639.25-6.46L639.25-6.46Q640.77-5.86 642.63-5.86L642.63-5.86L651.17-5.86L651.17-5.86Q653.03-5.86 654.55-6.46L654.55-6.46L654.55-6.46Q656.08-7.06 657.18-8.14L657.18-8.14L657.18-8.14Q658.28-9.23 658.87-10.75L658.87-10.75L658.87-10.75Q659.47-12.28 659.47-14.16L659.47-14.16ZM707.08-27.29L707.08-23.24L707.08-23.24Q707.08-21.07 706.54-19.36L706.54-19.36L706.54-19.36Q706.01-17.65 705.09-16.35L705.09-16.35L705.09-16.35Q704.17-15.04 702.98-14.11L702.98-14.11L702.98-14.11Q701.78-13.18 700.48-12.59L700.48-12.59L700.48-12.59Q699.17-11.99 697.84-11.72L697.84-11.72L697.84-11.72Q696.51-11.45 695.34-11.45L695.34-11.45L708.59 0L698.78 0L685.55-11.45L680.98-11.45L680.98-17.80L695.34-17.80L695.34-17.80Q696.53-17.90 697.52-18.30L697.52-18.30L697.52-18.30Q698.51-18.70 699.23-19.38L699.23-19.38L699.23-19.38Q699.95-20.07 700.34-21.03L700.34-21.03L700.34-21.03Q700.73-22.00 700.73-23.24L700.73-23.24L700.73-27.25L700.73-27.25Q700.73-27.78 700.60-28.06L700.60-28.06L700.60-28.06Q700.46-28.34 700.26-28.48L700.26-28.48L700.26-28.48Q700.05-28.61 699.82-28.64L699.82-28.64L699.82-28.64Q699.58-28.66 699.39-28.66L699.39-28.66L678.44-28.66L678.44 0L672.09 0L672.09-31.81L672.09-31.81Q672.09-32.47 672.34-33.06L672.34-33.06L672.34-33.06Q672.58-33.64 673.01-34.08L673.01-34.08L673.01-34.08Q673.44-34.52 674.02-34.77L674.02-34.77L674.02-34.77Q674.61-35.01 675.29-35.01L675.29-35.01L699.39-35.01L699.39-35.01Q701.51-35.01 702.98-34.24L702.98-34.24L702.98-34.24Q704.44-33.47 705.36-32.31L705.36-32.31L705.36-32.31Q706.27-31.15 706.68-29.81L706.68-29.81L706.68-29.81Q707.08-28.47 707.08-27.29L707.08-27.29ZM747.09-10.30L747.09-10.30L747.09-10.30Q747.09-8.42 746.62-6.92L746.62-6.92L746.62-6.92Q746.14-5.42 745.36-4.27L745.36-4.27L745.36-4.27Q744.58-3.13 743.53-2.32L743.53-2.32L743.53-2.32Q742.48-1.51 741.36-1.00L741.36-1.00L741.36-1.00Q740.23-0.49 739.07-0.24L739.07-0.24L739.07-0.24Q737.92 0 736.89 0L736.89 0L712.40 0L712.40-6.35L736.89-6.35L736.89-6.35Q738.72-6.35 739.73-7.42L739.73-7.42L739.73-7.42Q740.75-8.50 740.75-10.30L740.75-10.30L740.75-10.30Q740.75-11.18 740.48-11.91L740.48-11.91L740.48-11.91Q740.21-12.65 739.71-13.18L739.71-13.18L739.71-13.18Q739.21-13.72 738.49-14.01L738.49-14.01L738.49-14.01Q737.77-14.31 736.89-14.31L736.89-14.31L722.29-14.31L722.29-14.31Q720.75-14.31 718.97-14.86L718.97-14.86L718.97-14.86Q717.19-15.41 715.66-16.63L715.66-16.63L715.66-16.63Q714.14-17.85 713.12-19.82L713.12-19.82L713.12-19.82Q712.11-21.80 712.11-24.66L712.11-24.66L712.11-24.66Q712.11-27.51 713.12-29.48L713.12-29.48L713.12-29.48Q714.14-31.45 715.66-32.68L715.66-32.68L715.66-32.68Q717.19-33.91 718.97-34.46L718.97-34.46L718.97-34.46Q720.75-35.01 722.29-35.01L722.29-35.01L743.90-35.01L743.90-28.66L722.29-28.66L722.29-28.66Q720.48-28.66 719.47-27.56L719.47-27.56L719.47-27.56Q718.46-26.46 718.46-24.66L718.46-24.66L718.46-24.66Q718.46-22.83 719.47-21.77L719.47-21.77L719.47-21.77Q720.48-20.70 722.29-20.70L722.29-20.70L736.89-20.70L736.94-20.70L736.94-20.70Q737.96-20.68 739.11-20.42L739.11-20.42L739.11-20.42Q740.26-20.17 741.39-19.63L741.39-19.63L741.39-19.63Q742.53-19.09 743.55-18.27L743.55-18.27L743.55-18.27Q744.58-17.46 745.37-16.31L745.37-16.31L745.37-16.31Q746.17-15.16 746.63-13.67L746.63-13.67L746.63-13.67Q747.09-12.18 747.09-10.30Z" fill="url(#editing-gradow-gradient)"></path></g></g><style>text {
  font-size: 64px;
  font-family: Arial Black;
  dominant-baseline: central;
  text-anchor: middle;
}</style></svg>